<svg xmlns="http://www.w3.org/2000/svg" version="1.1" x="0" y="0" width="764.3" height="114" viewBox="0" xml:space="preserve">
	<defs>
		<style>.svg-logo {fill: #b7bd25;}</style>
	</defs>

	<path class="svg-logo" d="M0 0h38v10.7H26.3l0.7 3.5 21.4 70.1 23.5-73.6H59.7V0h37v10.7H86.1l-32.2 101.9H42.3L11.2 10.7H0V0zM167.2 79.5h-62.2c0.5 6.6 3.1 12 7.8 16.2 4.7 4.3 10.4 6.4 17.1 6.4 4.7 0 8.9-0.9 12.7-2.8 3.8-1.9 7-4.8 9.6-8.8h13.2c-3.4 6.7-8.1 12.1-14.2 16.2 -6.1 4.2-13.2 6.2-21.4 6.2 -11.3 0-20.6-3.6-27.8-10.7 -7.3-7.1-10.9-16-10.9-26.6 0-10.7 3.6-19.7 10.8-26.9 7.2-7.2 16.3-10.8 27.1-10.8 6.7 0 12.5 1.4 17.6 4.1 5.1 2.7 9.3 6.3 12.5 10.7 3.2 4.4 5.5 9.2 6.8 14.5C166.8 70.5 167.2 74.6 167.2 79.5zM105 69.5h48.3c-1-6.3-3.7-11.3-8.2-15.1 -4.5-3.8-9.8-5.7-15.9-5.7 -6.4 0-11.8 2-16.3 5.9C108.4 58.5 105.8 63.5 105 69.5zM177.3 111.1v-10.3h12.1V50.3H177.3v-10.3h24v13.1c2.7-4.7 5.6-8.2 8.9-10.4 4.5-3 9.8-4.6 15.8-4.6 0.7 0 1.8 0 3.2 0.1v12.3c-2-0.1-3-0.1-3-0.1 -4.6 0-8.8 1-12.7 2.9 -3.9 2-6.7 4.4-8.4 7.3 -1.7 2.9-2.6 6.1-2.6 9.4v30.8h13v10.3H177.3zM296.1 50V10.3h-12.8V0h25.8v100.8h11.9v10.3h-24.4v-10.7c-2.9 3.9-6.5 7-10.8 9.2 -4.4 2.3-9.3 3.4-14.8 3.4 -11.1 0-19.9-4.3-26.4-12.8 -5.4-7-8-15.1-8-24.4 0-9.4 2.8-17.7 8.3-24.8 6.8-8.7 15.5-13 26.3-13 5.1 0 9.8 1.1 14.1 3.2C289.6 43.4 293.2 46.3 296.1 50zM272.6 101.9c4 0 7.5-0.7 10.5-2.1 1.9-0.9 3.9-2.4 6-4.5 2.1-2.1 3.9-4.7 5.3-7.9 1.5-3.2 2.2-7.2 2.2-12 0-8.5-2.5-14.9-7.6-19.2 -5.1-4.3-10.5-6.5-16.2-6.5 -4 0-7.8 1.1-11.4 3.2 -3.6 2.1-6.4 5.2-8.3 9.3 -2 4.1-3 8.6-3 13.6 0 8.1 2.1 14.4 6.3 19.1C260.7 99.6 266 101.9 272.6 101.9zM405.3 79.5h-62.2c0.5 6.6 3.1 12 7.8 16.2 4.7 4.3 10.4 6.4 17.1 6.4 4.7 0 8.9-0.9 12.7-2.8 3.8-1.9 7-4.8 9.6-8.8h13.2c-3.4 6.7-8.1 12.1-14.2 16.2 -6.1 4.2-13.2 6.2-21.4 6.2 -11.3 0-20.6-3.6-27.8-10.7 -7.3-7.1-10.9-16-10.9-26.6 0-10.7 3.6-19.7 10.8-26.9 7.2-7.2 16.3-10.8 27.1-10.8 6.7 0 12.5 1.4 17.6 4.1 5.1 2.7 9.3 6.3 12.5 10.7 3.2 4.4 5.5 9.2 6.8 14.5C404.9 70.5 405.3 74.6 405.3 79.5zM343.1 69.5h48.3c-1-6.3-3.7-11.3-8.2-15.1 -4.5-3.8-9.8-5.7-15.9-5.7 -6.4 0-11.8 2-16.3 5.9C346.5 58.5 343.8 63.5 343.1 69.5zM409.1 40h32.9v10.3h-10.5l15.1 40.4 16-40.4h-10.4v-10.3h33.6v10.3h-10.9l16 40.1 15.7-40.1h-10.1v-10.3h31.1v10.3h-9.3l-24 61.5h-8.3L467.7 66.1l-17.6 45.7h-8.8l-23.1-61.5h-9.2V40zM607.8 79.5h-62.2c0.5 6.6 3.1 12 7.8 16.2 4.7 4.3 10.4 6.4 17.1 6.4 4.7 0 8.9-0.9 12.7-2.8 3.8-1.9 7-4.8 9.6-8.8h13.2c-3.4 6.7-8.1 12.1-14.2 16.2 -6.1 4.2-13.2 6.2-21.4 6.2 -11.3 0-20.6-3.6-27.8-10.7 -7.3-7.1-10.9-16-10.9-26.6 0-10.7 3.6-19.7 10.8-26.9s16.3-10.8 27.1-10.8c6.7 0 12.5 1.4 17.6 4.1 5.1 2.7 9.3 6.3 12.5 10.7 3.2 4.4 5.5 9.2 6.8 14.5C607.4 70.5 607.8 74.6 607.8 79.5zM545.6 69.5h48.3c-1-6.3-3.7-11.3-8.2-15.1 -4.5-3.8-9.8-5.7-15.9-5.7 -6.4 0-11.8 2-16.3 5.9C549 58.5 546.3 63.5 545.6 69.5zM677.9 50.6V40h24v10.3h-12.5v50.6h12.3v10.3h-23.9v-11c-2.9 4.3-6.6 7.5-11.1 9.7 -4.5 2.2-9.4 3.3-14.9 3.3 -9.8 0-18-3.5-24.7-10.5 -6.7-7-10.1-15.9-10.1-26.7 0-11.1 3.4-20.2 10.1-27.2 6.8-7 15.1-10.5 25.1-10.5 5.5 0 10.3 1.1 14.4 3.2C670.9 43.6 674.6 46.6 677.9 50.6zM653.4 101.7c3.7 0 7.2-0.8 10.7-2.6 2.3-1.1 4.3-2.6 6.2-4.5 2.4-2.5 4.2-5.4 5.4-8.6 1.2-3.2 1.8-6.8 1.8-10.8 0-7.8-2.2-14.1-6.7-18.8s-10-7.1-16.6-7.1c-4.3 0-8.3 1-11.9 3.1 -3.6 2.1-6.4 5.2-8.3 9.3 -1.9 4.1-2.9 8.8-2.9 14.1 0 7.8 2.2 14.1 6.5 18.8C641.9 99.4 647.2 101.7 653.4 101.7zM711.8 111.1v-10.3h12.1V50.3h-12.1v-10.3h24v13.1c2.7-4.7 5.6-8.2 8.9-10.4 4.5-3 9.8-4.6 15.8-4.6 0.7 0 1.8 0 3.2 0.1v12.3c-2-0.1-3-0.1-3-0.1 -4.6 0-8.8 1-12.7 2.9 -3.9 2-6.7 4.4-8.4 7.3 -1.7 2.9-2.6 6.1-2.6 9.4v30.8h13v10.3H711.8z"/>
</svg>